<?xml version="1.0" standalone="no"?>
<!DOCTYPE svg PUBLIC "-//W3C//DTD SVG 20010904//EN"
 "http://www.w3.org/TR/2001/REC-SVG-20010904/DTD/svg10.dtd">
<svg version="1.0" xmlns="http://www.w3.org/2000/svg"
 width="256.000000pt" height="256.000000pt" viewBox="0 0 256.000000 256.000000"
 preserveAspectRatio="xMidYMid meet">
<metadata>
Created by potrace 1.11, written by Peter Selinger 2001-2013
</metadata>
<g transform="translate(0.000000,256.000000) scale(0.100000,-0.100000)"
fill="#000000" stroke="none">
<path d="M1267 2544 c-1 -1 -45 -4 -97 -8 -343 -23 -679 -203 -894 -481 -117
-151 -174 -263 -230 -455 -90 -307 -36 -685 140 -970 164 -267 389 -448 677
-546 95 -33 114 -38 186 -50 18 -3 43 -8 55 -11 34 -8 287 -8 346 0 106 15
130 20 135 27 3 5 -25 17 -63 29 -116 35 -285 125 -396 210 -59 45 -217 215
-260 280 -52 78 -136 241 -136 264 0 7 -4 17 -8 23 -8 9 -30 76 -37 116 -2 11
-7 28 -10 38 -19 59 -29 163 -28 290 3 374 189 741 492 974 61 47 223 146 240
146 4 0 25 9 47 19 22 11 68 28 102 38 34 10 62 21 62 24 0 4 -15 10 -32 13
-18 3 -44 8 -58 11 -32 7 -228 23 -233 19z"/>
<path d="M1755 2213 c-195 -36 -357 -118 -502 -254 -24 -22 -43 -43 -43 -47 0
-5 28 -7 63 -6 282 9 541 -182 622 -460 19 -68 23 -98 20 -186 -4 -132 -31
-220 -100 -324 -116 -177 -315 -286 -527 -287 -43 0 -78 -3 -78 -7 0 -11 92
-92 157 -138 78 -57 206 -117 308 -144 122 -34 335 -36 465 -6 36 8 143 125
219 240 77 116 159 318 177 436 2 14 7 46 12 72 14 75 7 342 -12 426 -33 150
-94 301 -165 412 -62 97 -154 209 -202 247 -43 35 -287 50 -414 26z"/>
</g>
</svg>
